<svg width="70" height="70" viewBox="0 0 70 70" fill="none" xmlns="http://www.w3.org/2000/svg">
<g clip-path="url(#clip0)">
<rect width="70" height="70" fill="#111111"/>
<g clip-path="url(#clip1)">
<path d="M68.3496 22.1556C67.7712 23.6514 65.4975 28.0174 57.3875 33.9562L56.3402 34.6959C53.3762 36.7884 49.9722 38.8684 46.1691 40.9143L46.0878 40.9579L46.0068 41.0014L46.0059 41.0019C45.3643 41.3466 44.7068 41.6889 44.039 42.0331C43.9709 42.0681 43.906 42.1016 43.8421 42.1347C43.7444 42.1852 43.649 42.2345 43.5485 42.2855L43.5481 42.2857C42.9596 42.5852 42.3607 42.8844 41.7546 43.1822C41.6676 43.2249 41.5866 43.265 41.5071 43.3044C41.3984 43.3583 41.2923 43.4109 41.177 43.4669L41.1765 43.4671C40.3939 43.848 39.601 44.2276 38.7933 44.6043L38.7607 44.6195L38.7482 44.6253L38.736 44.6315C38.0639 44.9754 37.3978 45.3058 36.7329 45.6326L36.7172 45.6403C36.522 45.7358 36.3314 45.8291 36.1334 45.9243L36.1322 45.9249C35.8134 46.0789 35.4973 46.2275 35.1763 46.3785C35.132 46.3993 35.0876 46.4202 35.0431 46.4411C30.5498 48.5462 24.9931 50.7901 19.4381 52.1196C13.8665 53.453 8.39564 53.842 4.01552 52.3461C3.22185 52.0637 2.58206 51.4899 2.22781 50.7051L2.22742 50.7042C1.87289 49.9214 1.85829 49.0262 2.17766 48.254L68.3496 22.1556Z" stroke="#FEFEFE" stroke-width="1.5"/>
<path d="M40.2681 47.7353C40.2156 47.7619 40.1642 47.7873 40.1164 47.811L40.1139 47.8123C40.0548 47.8416 40.0009 47.8683 39.9476 47.8956L39.946 47.8964C39.3914 48.1789 38.8397 48.4562 38.2964 48.7227M40.2681 47.7353L37.9661 48.0493M40.2681 47.7353L40.2848 47.7275C40.7571 47.5072 41.3166 47.2417 41.9368 46.941M40.2681 47.7353L41.9368 46.941M38.2964 48.7227L37.9661 48.0493M38.2964 48.7227C38.2965 48.7226 38.2966 48.7226 38.2967 48.7225L37.9661 48.0493M38.2964 48.7227C38.2312 48.7547 38.1666 48.7858 38.1051 48.8154L38.1034 48.8162C38.0404 48.8465 37.9807 48.8752 37.9215 48.9043L37.919 48.9055C37.352 49.1815 36.7908 49.4508 36.2379 49.7103L36.2363 49.711C36.2083 49.7241 36.1828 49.7359 36.1586 49.7471C36.1146 49.7674 36.0749 49.7858 36.0323 49.8061L36.0265 49.8089L36.0265 49.8088C32.4316 51.4865 29.1438 52.8021 26.1403 53.8147M37.9661 48.0493C37.9035 48.08 37.841 48.1101 37.7788 48.1401C37.716 48.1703 37.6534 48.2004 37.5909 48.2311C37.0262 48.5059 36.4682 48.7737 35.9193 49.0313C35.8959 49.0422 35.8724 49.0531 35.8491 49.0639C35.8023 49.0855 35.7557 49.1071 35.7094 49.1292C31.887 50.9131 28.4203 52.282 25.2809 53.31C25.5633 53.4854 25.8498 53.6537 26.1403 53.8147M26.1403 53.8147C25.8186 53.9232 25.5001 54.0282 25.1848 54.1298C26.3022 54.7982 27.4808 55.36 28.7115 55.8079C39.3879 59.6938 51.234 54.17 55.1199 43.4935C55.6546 42.0244 56.0186 40.5138 56.2084 38.9778C55.9336 39.1592 55.6558 39.3405 55.3749 39.5216M26.1403 53.8147C27.0455 54.3163 27.9897 54.7471 28.968 55.1032C39.2552 58.8474 50.6709 53.5242 54.4151 43.237C54.8566 42.0241 55.1771 40.7825 55.3749 39.5216M55.3749 39.5216C51.4556 42.0484 46.9491 44.5335 41.9368 46.941M55.3749 39.5216C55.4258 39.1969 55.4686 38.8709 55.5033 38.5438C51.4926 41.1698 46.8319 43.7578 41.6109 46.2655C40.9935 46.5648 40.4369 46.829 39.9678 47.0477L41.9368 46.941" stroke="#FEFEFE" stroke-width="1.5"/>
<path d="M17.9409 32.7449L17.9409 32.7448C18.2176 31.2101 18.6159 29.7168 19.1264 28.3082L17.9409 32.7449ZM17.9409 32.7449C17.789 33.5874 18.2733 34.395 19.0512 34.6781C19.1365 34.7091 19.2309 34.7367 19.3353 34.7559L19.3369 34.7562M17.9409 32.7449L19.3369 34.7562M21.3438 27.2706L21.3451 27.271L21.346 27.2714C22.2444 27.5984 22.7063 28.5905 22.3815 29.488L22.3814 29.4883C21.9386 30.7101 21.5908 32.0127 21.3481 33.3595L21.3438 27.2706ZM21.3438 27.2706C20.4453 26.9453 19.4522 27.4083 19.1265 28.3079L21.3438 27.2706ZM19.3369 34.7562C20.2788 34.9272 21.1789 34.2998 21.348 33.3598L19.3369 34.7562ZM20.9702 38.6788C20.9104 37.7243 20.087 36.9989 19.132 37.0605C18.1785 37.121 17.454 37.9434 17.515 38.8975C17.5872 40.0425 17.8139 40.924 18.1071 41.8185L18.1072 41.8185C18.411 42.745 19.4197 43.2261 20.3273 42.9051L20.3277 42.9049C21.2265 42.5863 21.6818 41.6128 21.3931 40.7257L21.3925 40.7238C21.1608 40.0182 21.0182 39.4383 20.9702 38.6788ZM20.9702 38.6788L20.2216 38.7257M20.9702 38.6788C20.9702 38.6787 20.9702 38.6785 20.9702 38.6784L20.2216 38.7257M20.2216 38.7257C20.2749 39.5689 20.4358 40.2143 20.6799 40.9578M20.2216 38.7257C20.1878 38.185 19.7213 37.7741 19.1803 37.809L20.6799 40.9578M20.6799 40.9578C20.846 41.4681 20.583 42.0187 20.0772 42.198M20.6799 40.9578L20.0772 42.198M20.0772 42.198C19.5606 42.3807 18.9905 42.1053 18.8198 41.5848L20.0772 42.198ZM50.9787 23.7695L50.997 23.79L51.0167 23.8092L51.2446 24.0304C52.482 25.5785 53.4733 27.2853 54.2023 29.1238C52.1365 30.435 50.0621 31.6921 47.9712 32.9267L47.9711 32.9267C43.5787 35.5208 39.1183 37.9964 34.5611 40.2709L34.561 40.2709C29.4367 42.8298 24.2029 45.1681 18.7203 46.6716C18.6416 46.6027 18.533 46.4635 18.4062 46.2383C18.2262 45.9186 18.0983 45.6046 17.9773 45.3077C17.9105 45.1439 17.8459 44.9853 17.7758 44.8338C17.3375 43.8844 16.9726 42.9008 16.6835 41.8958C16.6811 41.8852 16.6783 41.8735 16.6756 41.8623C16.669 41.8346 16.6597 41.7968 16.649 41.7536C16.6275 41.6666 16.5987 41.5516 16.5701 41.4374L16.491 41.1233L16.4649 41.0199L16.4576 40.9909L16.4557 40.9832L16.4552 40.9812L16.455 40.9807L16.455 40.9806L16.455 40.9806L15.7279 41.1644L16.455 40.9806L16.4545 40.9787C16.4492 40.9579 16.4439 40.9371 16.4386 40.9165C16.3934 40.7397 16.3504 40.5716 16.3108 40.403L15.9087 36.939C15.909 36.9237 15.9096 36.9057 15.9105 36.8798C15.9109 36.8686 15.9113 36.8559 15.9118 36.8412C15.9151 36.7546 15.9173 36.6643 15.9169 36.5717L15.9169 36.5698C15.9007 34.2035 16.2885 31.8796 17.0982 29.6548C20.8421 19.3684 32.2599 14.045 42.5448 17.7895L42.5448 17.7896C45.2091 18.7593 47.5836 20.2506 49.5597 22.1744L50.9787 23.7695ZM27.9425 19.8068L27.9416 19.8073L27.17 22.1299C27.3764 22.5433 27.727 22.8362 28.126 22.9815C28.5562 23.1381 29.0511 23.1252 29.4946 22.9022C32.7879 21.2526 37.1559 21.0475 40.8647 22.3974L40.8648 22.3974L40.8648 22.3974L40.8648 22.3974L40.8648 22.3974L40.8648 22.3974L40.8648 22.3974L40.8649 22.3974L40.8649 22.3975L40.8649 22.3975L40.8649 22.3975L40.8649 22.3975L40.8649 22.3975L40.865 22.3975L40.865 22.3975L40.865 22.3975L40.865 22.3975L40.865 22.3975L40.865 22.3975L40.8651 22.3975L40.8651 22.3975L40.8651 22.3975L40.8651 22.3975L40.8651 22.3975L40.8651 22.3975L40.8651 22.3975L40.8652 22.3976L40.8652 22.3976L40.8652 22.3976L40.8652 22.3976L40.8652 22.3976L40.8652 22.3976L40.8653 22.3976L40.8653 22.3976L40.8653 22.3976L40.8653 22.3976L40.8653 22.3976L40.8653 22.3976L40.8654 22.3976L40.8654 22.3976L40.8654 22.3976L40.8654 22.3976L40.8654 22.3976L40.8654 22.3977L40.8655 22.3977L40.8655 22.3977L40.8655 22.3977L40.8655 22.3977L40.8655 22.3977L40.8655 22.3977L40.8655 22.3977L40.8656 22.3977L40.8656 22.3977L40.8656 22.3977L40.8656 22.3977L40.8656 22.3977L40.8656 22.3977L40.8657 22.3977L40.8657 22.3977L40.8657 22.3977L40.8657 22.3978L40.8657 22.3978L40.8657 22.3978L40.8658 22.3978L40.8658 22.3978L40.8658 22.3978L40.8658 22.3978L40.8658 22.3978L40.8658 22.3978L40.8659 22.3978L40.8659 22.3978L40.8659 22.3978L40.8659 22.3978L40.8659 22.3978L40.8659 22.3978L40.8659 22.3978L40.866 22.3978L40.866 22.3979L40.866 22.3979L40.866 22.3979L40.866 22.3979L40.866 22.3979L40.8661 22.3979L40.8661 22.3979L40.8661 22.3979L40.8661 22.3979L40.8661 22.3979L40.8661 22.3979L40.8662 22.3979L40.8662 22.3979L40.8662 22.3979L40.8662 22.3979L40.8662 22.3979L40.8662 22.3979L40.8663 22.398L40.8663 22.398L40.8663 22.398L40.8663 22.398L40.8663 22.398L40.8663 22.398L40.8663 22.398L40.8664 22.398L40.8664 22.398L40.8664 22.398L40.8664 22.398L40.8664 22.398L40.8664 22.398L40.8665 22.398L40.8665 22.398L40.8665 22.398L40.8665 22.398L40.8665 22.398L40.8665 22.3981L40.8666 22.3981L40.8666 22.3981L40.8666 22.3981L40.8666 22.3981L40.8666 22.3981L40.8666 22.3981L40.8666 22.3981L40.8667 22.3981L40.8667 22.3981L40.8667 22.3981L40.8667 22.3981L40.8667 22.3981L40.8667 22.3981L40.8668 22.3981L40.8668 22.3981L40.8668 22.3981L40.8668 22.3982L40.8668 22.3982L40.8668 22.3982L40.8669 22.3982L40.8669 22.3982L40.8669 22.3982L40.8669 22.3982L40.8669 22.3982L40.8669 22.3982L40.867 22.3982L40.867 22.3982L40.867 22.3982L40.867 22.3982L40.867 22.3982L40.867 22.3982L40.867 22.3982L40.8671 22.3982L40.8671 22.3983L40.8671 22.3983L40.8671 22.3983L40.8671 22.3983L40.8671 22.3983L40.8672 22.3983L40.8672 22.3983L40.8672 22.3983L40.8672 22.3983L40.8672 22.3983L40.8672 22.3983L40.8673 22.3983L40.8673 22.3983L40.8673 22.3983L40.8673 22.3983L40.8673 22.3983L40.8673 22.3983L40.8674 22.3984L40.8674 22.3984L40.8674 22.3984L40.8674 22.3984L40.8674 22.3984L40.8674 22.3984L40.8674 22.3984L40.8675 22.3984C41.7656 22.7253 42.7592 22.2618 43.0862 21.364L43.0863 21.3638C43.413 20.4661 42.9521 19.4727 42.0507 19.1447L42.0507 19.1447L42.0507 19.1447L42.0507 19.1446L42.0506 19.1446L42.0506 19.1446L42.0506 19.1446L42.0506 19.1446L42.0506 19.1446L42.0506 19.1446L42.0505 19.1446L42.0505 19.1446L42.0505 19.1446L42.0505 19.1446L42.0505 19.1446L42.0505 19.1446L42.0505 19.1446L42.0504 19.1446L42.0504 19.1446L42.0504 19.1446L42.0504 19.1446L42.0504 19.1445L42.0504 19.1445L42.0503 19.1445L42.0503 19.1445L42.0503 19.1445L42.0503 19.1445L42.0503 19.1445L42.0503 19.1445L42.0502 19.1445L42.0502 19.1445L42.0502 19.1445L42.0502 19.1445L42.0502 19.1445L42.0502 19.1445L42.0501 19.1445L42.0501 19.1445L42.0501 19.1445L42.0501 19.1444L42.0501 19.1444L42.0501 19.1444L42.0501 19.1444L42.05 19.1444L42.05 19.1444L42.05 19.1444L42.05 19.1444L42.05 19.1444L42.05 19.1444L42.0499 19.1444L42.0499 19.1444L42.0499 19.1444L42.0499 19.1444L42.0499 19.1444L42.0499 19.1444L42.0498 19.1444L42.0498 19.1443L42.0498 19.1443L42.0498 19.1443L42.0498 19.1443L42.0498 19.1443L42.0497 19.1443L42.0497 19.1443L42.0497 19.1443L42.0497 19.1443L42.0497 19.1443L42.0497 19.1443L42.0497 19.1443L42.0496 19.1443L42.0496 19.1443L42.0496 19.1443L42.0496 19.1443L42.0496 19.1443L42.0496 19.1442L42.0495 19.1442L42.0495 19.1442L42.0495 19.1442L42.0495 19.1442L42.0495 19.1442L42.0495 19.1442L42.0494 19.1442L42.0494 19.1442L42.0494 19.1442L42.0494 19.1442L42.0494 19.1442L42.0494 19.1442L42.0493 19.1442L42.0493 19.1442L42.0493 19.1442L42.0493 19.1442L42.0493 19.1441L42.0493 19.1441L42.0493 19.1441L42.0492 19.1441L42.0492 19.1441L42.0492 19.1441L42.0492 19.1441L42.0492 19.1441L42.0492 19.1441L42.0491 19.1441L42.0491 19.1441L42.0491 19.1441L42.0491 19.1441L42.0491 19.1441L42.0491 19.1441L42.049 19.1441L42.049 19.1441L42.049 19.1441L42.049 19.144L42.049 19.144L42.049 19.144L42.0489 19.144L42.0489 19.144L42.0489 19.144L42.0489 19.144L42.0489 19.144L42.0489 19.144L42.0489 19.144L42.0488 19.144L42.0488 19.144L42.0488 19.144L42.0488 19.144L42.0488 19.144L42.0488 19.144L42.0487 19.144L42.0487 19.1439L42.0487 19.1439L42.0487 19.1439L42.0487 19.1439L42.0487 19.1439L42.0486 19.1439L42.0486 19.1439L42.0486 19.1439L42.0486 19.1439L42.0486 19.1439L42.0486 19.1439L42.0485 19.1439L42.0485 19.1439L42.0485 19.1439L42.0485 19.1439L42.0485 19.1439L42.0485 19.1439L42.0485 19.1438L42.0484 19.1438L42.0484 19.1438L42.0484 19.1438L42.0484 19.1438L42.0484 19.1438L42.0484 19.1438L42.0483 19.1438L42.0483 19.1438L42.0483 19.1438L42.0483 19.1438L42.0483 19.1438L42.0483 19.1438L42.0482 19.1438L42.0482 19.1438L42.0482 19.1438L42.0482 19.1438L42.0482 19.1437L42.0482 19.1437L42.0482 19.1437L42.0481 19.1437L42.0481 19.1437L42.0481 19.1437L42.0481 19.1437L42.0481 19.1437L42.0481 19.1437L42.048 19.1437L42.048 19.1437L42.048 19.1437L42.048 19.1437C37.4864 17.4834 32.0936 17.7274 27.9425 19.8068Z" stroke="#FEFEFE" stroke-width="1.5"/>
</g>
</g>
<defs>
<clipPath id="clip0">
<rect width="70" height="70" fill="white"/>
</clipPath>
<clipPath id="clip1">
<rect width="55" height="55" fill="white" transform="translate(18.8112) rotate(20)"/>
</clipPath>
</defs>
</svg>
