<svg width="50" height="50" viewBox="0 0 50 50" fill="none" xmlns="http://www.w3.org/2000/svg">
<path d="M35.3047 28.9609C35.6291 29.2853 35.8865 29.6704 36.0621 30.0942C36.2377 30.5181 36.3281 30.9724 36.3281 31.4312C36.3281 31.8899 36.2377 32.3442 36.0621 32.7681C35.8865 33.1919 35.6291 33.577 35.3047 33.9014L29.5859 39.7041L26.2695 36.3467C25.3161 35.3812 24.7807 34.0794 24.7791 32.7225C24.7774 31.3656 25.3096 30.0625 26.2607 29.0947C29.3499 28.0726 32.2494 26.5483 34.8428 24.583L34.8457 24.5869C34.4095 25.2583 34.2171 26.059 34.3007 26.8552C34.3842 27.6514 34.7387 28.3948 35.3047 28.9609Z" fill="#5B4773"/>
<path d="M18.7461 12.4024C19.312 12.9685 20.0553 13.3229 20.8515 13.4063C21.6476 13.4896 22.4482 13.2969 23.1191 12.8604C21.1227 15.4732 19.5739 18.3994 18.5361 21.5196C17.5625 22.4383 16.2702 22.9432 14.9317 22.9279C13.5931 22.9126 12.3127 22.3783 11.3604 21.4375L8.00195 18.1211L13.8057 12.4024C14.13 12.0779 14.5151 11.8205 14.939 11.6449C15.3628 11.4693 15.8171 11.3789 16.2759 11.3789C16.7347 11.3789 17.1889 11.4693 17.6128 11.6449C18.0366 11.8205 18.4217 12.0779 18.7461 12.4024Z" fill="#5B4773"/>
<path d="M46.6387 1.07424C46.6399 3.34958 46.3807 5.61759 45.8662 7.834L45.833 7.82619C43.2285 6.58174 41.1251 4.48771 39.8691 1.88869L39.8545 1.85842C42.0781 1.33627 44.3546 1.07313 46.6387 1.07424Z" fill="#9937ED"/>
<path d="M20.3154 25.5645L17.8613 23.1104C18.0058 22.5743 18.1656 22.044 18.3408 21.5196C19.3785 18.3994 20.9273 15.4732 22.9238 12.8604H22.9247C27.1252 7.34486 33.1083 3.45665 39.8544 1.85843L39.8691 1.8887C41.1251 4.48772 43.2284 6.58175 45.8329 7.8262L45.8662 7.83402C44.8892 12.0236 43.011 15.95 40.3622 19.3399C38.7667 21.385 36.9112 23.2133 34.8427 24.7784C32.2494 26.7436 29.3498 28.2679 26.2607 29.2901C25.6982 29.4766 25.1279 29.6462 24.5497 29.7989L22.2958 27.545L20.3154 25.5645Z" fill="#F1E5FD"/>
<path d="M22.2959 27.5449L21.0488 32.5889L15.125 26.6641L20.3154 25.5645L22.2959 27.5449Z" fill="#9937ED"/>
<path d="M17.9434 31.9444C17.944 32.4646 17.7541 32.967 17.4096 33.3567C17.065 33.7465 16.5896 33.9965 16.0732 34.0596L13.3594 34.3965L13.6953 31.6817C13.7621 31.143 14.0318 30.6502 14.4494 30.3035C14.867 29.9569 15.4011 29.7825 15.9428 29.816C16.4845 29.8495 16.9931 30.0883 17.3648 30.4838C17.7365 30.8793 17.9434 31.4016 17.9434 31.9444Z" fill="#4AC2FA"/>
<path d="M32.8853 18.5261C34.9276 18.5261 36.5832 16.8705 36.5832 14.8282C36.5832 12.7858 34.9276 11.1302 32.8853 11.1302C30.8429 11.1302 29.1873 12.7858 29.1873 14.8282C29.1873 16.8705 30.8429 18.5261 32.8853 18.5261Z" fill="#6317B2"/>
<path d="M39.8691 1.8887L39.8544 1.85843C33.1083 3.45665 27.1252 7.34486 22.9247 12.8604H22.9238C20.9273 15.4732 19.3785 18.3994 18.3408 21.5196C18.166 22.044 18.0061 22.5743 17.8613 23.1104L19.8144 25.0635C19.9589 24.5274 20.1188 23.9971 20.2939 23.4727C21.3317 20.3525 22.8804 17.4263 24.8769 14.8135H24.8779C28.9366 9.48562 34.6626 5.67034 41.1425 3.9762C40.6519 3.32293 40.2255 2.62386 39.8691 1.8887Z" fill="#A6B7D0"/>
<path d="M14.1113 38.8711H13.188C13.0326 38.8711 12.8836 38.8094 12.7737 38.6995C12.6638 38.5896 12.6021 38.4406 12.6021 38.2852C12.6021 38.1298 12.6638 37.9807 12.7737 37.8709C12.8836 37.761 13.0326 37.6992 13.188 37.6992H14.1113C14.4306 37.6993 14.7489 37.6619 15.0595 37.5877C15.2107 37.5515 15.37 37.5768 15.5024 37.6581C15.6349 37.7394 15.7296 37.8699 15.7658 38.0211C15.802 38.1722 15.7767 38.3315 15.6954 38.464C15.6142 38.5964 15.4836 38.6912 15.3325 38.7274C14.9325 38.823 14.5226 38.8712 14.1113 38.8711Z" fill="#38BBF9"/>
<path d="M11.0729 38.8709H9.47263C9.33706 38.8709 9.20568 38.8239 9.10088 38.7379C8.99609 38.6519 8.92436 38.5322 8.89792 38.3992C8.68462 36.9538 9.04394 35.4822 9.89939 34.2977L9.45749 34.2864C9.30468 34.2826 9.15943 34.2191 9.05274 34.1097C8.94604 34.0002 8.88635 33.8534 8.8864 33.7005C8.88539 33.0005 9.02394 32.3074 9.29395 31.6616C9.56397 31.0158 9.96002 30.4303 10.459 29.9394C10.9422 29.4529 11.5179 29.0679 12.1521 28.8071C12.7863 28.5462 13.4662 28.4149 14.1519 28.4206C14.3592 28.4221 14.5663 28.436 14.7719 28.4621C14.9363 28.4827 15.1064 28.5126 15.2761 28.551C16.2381 28.7717 17.118 29.26 17.8143 29.9595C18.5106 30.659 18.9948 31.5411 19.2111 32.5041C19.2476 32.6686 19.2761 32.8347 19.2957 32.9981C19.3948 33.7876 19.312 34.5893 19.0538 35.3419C18.7956 36.0946 18.3687 36.7782 17.8057 37.3405C17.7516 37.3962 17.687 37.4405 17.6156 37.4709C17.5441 37.5013 17.4674 37.5173 17.3898 37.5178C17.3122 37.5183 17.2352 37.5034 17.1634 37.4739C17.0916 37.4445 17.0264 37.401 16.9715 37.3462C16.9166 37.2913 16.8732 37.226 16.8437 37.1542C16.8143 37.0824 16.7994 37.0055 16.7999 36.9279C16.8005 36.8502 16.8164 36.7735 16.8468 36.7021C16.8773 36.6307 16.9216 36.5661 16.9772 36.5119C17.3547 36.1363 17.654 35.6896 17.8578 35.1977C18.0616 34.7057 18.1658 34.1781 18.1644 33.6456C18.1643 33.4772 18.1537 33.3089 18.1327 33.1417C18.1172 33.0127 18.0954 32.8852 18.0673 32.759C17.8993 32.0125 17.5237 31.3287 16.984 30.7864C16.4442 30.2441 15.7622 29.8653 15.0166 29.6938C14.8852 29.6645 14.7529 29.6407 14.625 29.6247C14.4653 29.6043 14.3045 29.5936 14.1435 29.5925H14.113C13.5872 29.5932 13.0667 29.6977 12.5813 29.9C12.096 30.1023 11.6554 30.3985 11.2848 30.7715C10.6403 31.4057 10.223 32.2348 10.0976 33.1303L11.207 33.1584C11.3248 33.1614 11.4389 33.1997 11.5345 33.2685C11.6302 33.3373 11.7028 33.4333 11.7431 33.544C11.7833 33.6547 11.7893 33.775 11.7601 33.8891C11.731 34.0032 11.6681 34.1059 11.5798 34.1838C11.0741 34.6172 10.6707 35.1573 10.3986 35.7651C10.1265 36.373 9.99243 37.0336 10.006 37.6994H11.0734C11.2288 37.6994 11.3778 37.7612 11.4877 37.8711C11.5976 37.9809 11.6593 38.13 11.6593 38.2854C11.6593 38.4408 11.5976 38.5898 11.4877 38.6997C11.3778 38.8096 11.2288 38.8713 11.0734 38.8713L11.0729 38.8709Z" fill="#38BBF9"/>
<path d="M38.6386 25.4799C38.518 25.4799 38.4003 25.4428 38.3016 25.3735C38.2029 25.3042 38.128 25.2062 38.0871 25.0927C38.0462 24.9793 38.0413 24.856 38.0731 24.7396C38.1048 24.6233 38.1717 24.5196 38.2646 24.4427C38.666 24.1102 39.0644 23.762 39.4483 23.4075C39.5046 23.3545 39.571 23.3131 39.6435 23.2858C39.7159 23.2585 39.7931 23.2459 39.8705 23.2486C39.9479 23.2513 40.024 23.2694 40.0944 23.3017C40.1647 23.334 40.228 23.3799 40.2805 23.4368C40.333 23.4937 40.3738 23.5605 40.4003 23.6333C40.4269 23.706 40.4387 23.7833 40.4352 23.8606C40.4317 23.938 40.4129 24.0139 40.3799 24.084C40.3469 24.154 40.3003 24.2168 40.2429 24.2688C39.8437 24.6371 39.4296 24.9992 39.0124 25.3449C38.9074 25.4323 38.7752 25.48 38.6386 25.4799Z" fill="#333333"/>
<path d="M41.6937 22.562C41.5802 22.562 41.4691 22.529 41.3741 22.467C41.279 22.4051 41.2039 22.3169 41.158 22.2131C41.1121 22.1093 41.0974 21.9944 41.1155 21.8824C41.1337 21.7704 41.1839 21.666 41.2603 21.5821C42.0762 20.684 42.8357 19.7363 43.5344 18.7443C43.9747 18.1193 44.3951 17.4684 44.7844 16.8107C45.101 16.2756 45.404 15.7238 45.6849 15.1708C46.4561 13.652 47.0921 12.0682 47.5854 10.4378C47.6304 10.2891 47.7326 10.1643 47.8696 10.0909C48.0066 10.0175 48.1671 10.0015 48.3159 10.0465C48.4646 10.0914 48.5894 10.1936 48.6628 10.3306C48.7362 10.4676 48.7522 10.6281 48.7072 10.7769C48.1939 12.4733 47.5322 14.1212 46.7298 15.7015C46.4375 16.2769 46.1223 16.8509 45.7929 17.4074C45.3881 18.091 44.9507 18.7679 44.4927 19.4185C43.7661 20.4502 42.9762 21.4359 42.1276 22.3698C42.0728 22.4304 42.0058 22.4789 41.931 22.512C41.8563 22.5451 41.7754 22.5621 41.6937 22.562Z" fill="#333333"/>
<path d="M2.04986 24.4639C1.93399 24.4639 1.82073 24.4295 1.7244 24.3651C1.62807 24.3007 1.55298 24.2092 1.50865 24.1022C1.46431 23.9951 1.4527 23.8773 1.4753 23.7637C1.4979 23.65 1.55369 23.5456 1.63561 23.4637L2.08482 23.015C2.19521 22.9076 2.34345 22.8479 2.49747 22.849C2.65149 22.85 2.7989 22.9117 2.9078 23.0206C3.01671 23.1295 3.07835 23.2769 3.07938 23.431C3.08042 23.585 3.02077 23.7332 2.91334 23.8436L2.46461 24.2923C2.4102 24.3468 2.34555 24.3901 2.27437 24.4195C2.20319 24.449 2.12689 24.4641 2.04986 24.4639Z" fill="#333333"/>
<path d="M3.77146 22.7423C3.65557 22.7423 3.54228 22.7079 3.44593 22.6435C3.34957 22.5791 3.27448 22.4876 3.23013 22.3805C3.18579 22.2735 3.1742 22.1557 3.19681 22.042C3.21943 21.9283 3.27525 21.8239 3.3572 21.742L5.36208 19.7371C5.4165 19.6827 5.48109 19.6396 5.55219 19.6101C5.62328 19.5807 5.69947 19.5655 5.77642 19.5655C5.85337 19.5655 5.92957 19.5807 6.00066 19.6101C6.07174 19.6396 6.13634 19.6828 6.19074 19.7372C6.24515 19.7916 6.28831 19.8562 6.31775 19.9273C6.34719 19.9984 6.36235 20.0746 6.36234 20.1515C6.36234 20.2285 6.34718 20.3047 6.31773 20.3757C6.28827 20.4468 6.24511 20.5114 6.1907 20.5658L4.18571 22.5707C4.13137 22.6252 4.06679 22.6684 3.9957 22.6978C3.92461 22.7273 3.8484 22.7424 3.77146 22.7423Z" fill="#333333"/>
<path d="M2.9325 26.654C2.81661 26.654 2.70331 26.6197 2.60694 26.5553C2.51057 26.4909 2.43546 26.3994 2.3911 26.2923C2.34675 26.1853 2.33514 26.0674 2.35776 25.9538C2.38037 25.8401 2.43619 25.7357 2.51815 25.6537L4.87489 23.297C4.98477 23.1871 5.1338 23.1254 5.28921 23.1254C5.44461 23.1253 5.59366 23.1871 5.70355 23.2969C5.81344 23.4068 5.87519 23.5559 5.8752 23.7113C5.8752 23.8667 5.81348 24.0157 5.7036 24.1256L3.34686 26.4824C3.29249 26.5369 3.2279 26.5801 3.1568 26.6096C3.08569 26.639 3.00947 26.6541 2.9325 26.654Z" fill="#333333"/>
<path d="M6.44146 23.1445C6.3256 23.1445 6.21233 23.1101 6.116 23.0458C6.01967 22.9814 5.94458 22.8899 5.90025 22.7828C5.85591 22.6758 5.84431 22.558 5.8669 22.4443C5.8895 22.3307 5.94529 22.2263 6.02721 22.1443L6.8985 21.2731C6.95275 21.2179 7.01738 21.1741 7.08866 21.1441C7.15994 21.114 7.23646 21.0984 7.31381 21.0981C7.39116 21.0978 7.4678 21.1128 7.53932 21.1423C7.61083 21.1717 7.67581 21.2151 7.7305 21.2698C7.78518 21.3245 7.8285 21.3895 7.85794 21.461C7.88739 21.5325 7.90238 21.6092 7.90206 21.6865C7.90174 21.7638 7.8861 21.8404 7.85606 21.9116C7.82601 21.9829 7.78215 22.0475 7.72701 22.1018L6.85543 22.9734C6.80108 23.0277 6.73655 23.0708 6.66551 23.1002C6.59447 23.1296 6.51834 23.1447 6.44146 23.1445Z" fill="#333333"/>
<path d="M1.8537 30.8054C1.73783 30.8054 1.62457 30.771 1.52823 30.7066C1.4319 30.6422 1.35682 30.5507 1.31248 30.4437C1.26814 30.3366 1.25654 30.2188 1.27914 30.1052C1.30173 29.9915 1.35752 29.8871 1.43944 29.8052L4.04295 27.2019C4.0972 27.1467 4.16183 27.1029 4.2331 27.0729C4.30438 27.0428 4.3809 27.0272 4.45825 27.0269C4.5356 27.0266 4.61224 27.0416 4.68376 27.071C4.75528 27.1005 4.82026 27.1438 4.87495 27.1985C4.92965 27.2532 4.97297 27.3182 5.00243 27.3897C5.03188 27.4612 5.04688 27.5378 5.04657 27.6152C5.04625 27.6925 5.03063 27.7691 5.00059 27.8403C4.97055 27.9116 4.9267 27.9762 4.87157 28.0305L2.26805 30.6338C2.21369 30.6883 2.1491 30.7315 2.078 30.7609C2.00689 30.7904 1.93066 30.8055 1.8537 30.8054Z" fill="#333333"/>
<path d="M5.79913 26.8601C5.68316 26.8601 5.56978 26.8258 5.47334 26.7614C5.3769 26.697 5.30174 26.6054 5.25739 26.4982C5.21303 26.3911 5.20146 26.2732 5.22416 26.1595C5.24685 26.0457 5.30279 25.9413 5.38487 25.8594L8.43477 22.8095C8.48891 22.7539 8.55356 22.7096 8.62496 22.6791C8.69636 22.6487 8.7731 22.6328 8.85071 22.6322C8.92833 22.6317 9.00527 22.6466 9.07708 22.6761C9.14888 22.7056 9.21412 22.749 9.269 22.8039C9.32388 22.8588 9.36731 22.924 9.39676 22.9958C9.42622 23.0676 9.44111 23.1446 9.44058 23.2222C9.44005 23.2998 9.4241 23.3765 9.39367 23.4479C9.36323 23.5193 9.31891 23.584 9.26329 23.6381L6.21339 26.6885C6.15904 26.743 6.09447 26.7862 6.02338 26.8156C5.95229 26.845 5.87608 26.8602 5.79913 26.8601Z" fill="#333333"/>
<path d="M20.7562 43.1701C20.6403 43.1702 20.5271 43.1358 20.4307 43.0714C20.3343 43.0071 20.2592 42.9156 20.2149 42.8085C20.1705 42.7014 20.1589 42.5836 20.1815 42.47C20.2041 42.3563 20.2599 42.2519 20.3418 42.1699L20.7904 41.7213C20.9006 41.6129 21.0491 41.5524 21.2037 41.553C21.3583 41.5536 21.5064 41.6153 21.6157 41.7246C21.725 41.8339 21.7867 41.9819 21.7873 42.1365C21.788 42.2911 21.7275 42.4396 21.6191 42.5498L21.1705 42.999C21.1161 43.0534 21.0515 43.0965 20.9804 43.1259C20.9093 43.1553 20.8331 43.1703 20.7562 43.1701Z" fill="#333333"/>
<path d="M22.4778 41.4487C22.3619 41.4486 22.2486 41.4143 22.1523 41.3499C22.0559 41.2855 21.9808 41.194 21.9365 41.0869C21.8922 40.9798 21.8806 40.862 21.9032 40.7484C21.9258 40.6347 21.9816 40.5303 22.0636 40.4484L24.0684 38.4435C24.1788 38.3361 24.3271 38.2764 24.4811 38.2775C24.6351 38.2785 24.7825 38.3402 24.8914 38.4491C25.0003 38.558 25.062 38.7054 25.063 38.8595C25.064 39.0135 25.0044 39.1617 24.897 39.2721L22.8921 41.277C22.8377 41.3315 22.7732 41.3747 22.7021 41.4042C22.631 41.4336 22.5548 41.4487 22.4778 41.4487Z" fill="#333333"/>
<path d="M21.6387 45.3603C21.5229 45.3602 21.4096 45.3259 21.3133 45.2615C21.2169 45.1971 21.1419 45.1056 21.0975 44.9985C21.0532 44.8915 21.0416 44.7737 21.0642 44.6601C21.0868 44.5464 21.1426 44.442 21.2245 44.3601L23.5813 42.0033C23.6354 41.9477 23.7001 41.9034 23.7715 41.873C23.8429 41.8426 23.9196 41.8266 23.9972 41.8261C24.0749 41.8256 24.1518 41.8405 24.2236 41.8699C24.2954 41.8994 24.3607 41.9428 24.4155 41.9977C24.4704 42.0526 24.5138 42.1179 24.5433 42.1897C24.5728 42.2615 24.5876 42.3384 24.5871 42.416C24.5866 42.4936 24.5706 42.5704 24.5402 42.6418C24.5098 42.7132 24.4655 42.7778 24.4098 42.832L22.053 45.1887C21.9986 45.2432 21.9341 45.2864 21.863 45.3158C21.7919 45.3453 21.7157 45.3604 21.6387 45.3603Z" fill="#333333"/>
<path d="M25.1478 41.8513C25.0319 41.8513 24.9186 41.8169 24.8223 41.7526C24.7259 41.6882 24.6508 41.5967 24.6064 41.4896C24.5621 41.3825 24.5505 41.2647 24.5731 41.151C24.5957 41.0374 24.6515 40.9329 24.7335 40.851L25.6046 39.9798C25.7145 39.8699 25.8635 39.8081 26.0189 39.8081C26.1743 39.8081 26.3234 39.8698 26.4333 39.9797C26.5432 40.0896 26.6049 40.2386 26.605 40.394C26.605 40.5495 26.5433 40.6985 26.4334 40.8084L25.5622 41.6797C25.5078 41.7342 25.4432 41.7774 25.3721 41.8068C25.301 41.8363 25.2248 41.8514 25.1478 41.8513Z" fill="#333333"/>
<path d="M20.56 49.5117C20.4441 49.5117 20.3309 49.4774 20.2345 49.413C20.1381 49.3486 20.063 49.2571 20.0187 49.15C19.9744 49.0429 19.9628 48.9251 19.9854 48.8114C20.008 48.6978 20.0638 48.5934 20.1458 48.5114L22.7491 45.9082C22.8033 45.8531 22.868 45.8092 22.9392 45.7792C23.0105 45.7492 23.087 45.7335 23.1644 45.7332C23.2417 45.7329 23.3184 45.7479 23.3899 45.7774C23.4614 45.8068 23.5264 45.8501 23.5811 45.9048C23.6358 45.9595 23.6791 46.0245 23.7086 46.096C23.738 46.1675 23.753 46.2442 23.7527 46.3215C23.7524 46.3989 23.7368 46.4754 23.7067 46.5467C23.6767 46.618 23.6328 46.6826 23.5777 46.7368L20.9743 49.3402C20.9199 49.3946 20.8554 49.4378 20.7843 49.4673C20.7132 49.4967 20.637 49.5118 20.56 49.5117Z" fill="#333333"/>
<path d="M24.5054 45.5664C24.3895 45.5664 24.2762 45.5321 24.1799 45.4677C24.0835 45.4033 24.0084 45.3118 23.964 45.2047C23.9197 45.0977 23.9081 44.9798 23.9307 44.8662C23.9533 44.7525 24.0091 44.6481 24.0911 44.5661L27.1411 41.5161C27.1953 41.461 27.26 41.4172 27.3313 41.3871C27.4025 41.3571 27.4791 41.3415 27.5564 41.3412C27.6338 41.3409 27.7104 41.3559 27.7819 41.3853C27.8534 41.4148 27.9184 41.4581 27.9731 41.5128C28.0278 41.5675 28.0711 41.6325 28.1005 41.704C28.13 41.7756 28.145 41.8522 28.1447 41.9296C28.1443 42.0069 28.1287 42.0834 28.0987 42.1547C28.0686 42.226 28.0248 42.2906 27.9696 42.3448L24.9197 45.3947C24.8654 45.4492 24.8008 45.4925 24.7297 45.5219C24.6586 45.5514 24.5824 45.5665 24.5054 45.5664Z" fill="#333333"/>
<path d="M43.7331 34.4053C43.2526 34.243 42.8162 33.9716 42.4581 33.6124C42.1 33.2532 41.83 32.816 41.6692 32.335C41.6303 32.2182 41.5557 32.1167 41.4559 32.0447C41.3562 31.9728 41.2362 31.9341 41.1132 31.9341C40.9902 31.9341 40.8703 31.9728 40.7705 32.0447C40.6707 32.1167 40.5961 32.2182 40.5573 32.335C40.3964 32.816 40.1264 33.2532 39.7683 33.6124C39.4102 33.9716 38.9738 34.243 38.4933 34.4053C38.3768 34.4443 38.2755 34.5189 38.2037 34.6186C38.1319 34.7183 38.0933 34.8381 38.0933 34.961C38.0933 35.0838 38.1319 35.2036 38.2037 35.3033C38.2755 35.403 38.3768 35.4776 38.4933 35.5166C38.9738 35.6789 39.4102 35.9503 39.7683 36.3095C40.1264 36.6687 40.3964 37.1059 40.5573 37.5869C40.5961 37.7037 40.6707 37.8052 40.7705 37.8772C40.8703 37.9491 40.9902 37.9878 41.1132 37.9878C41.2362 37.9878 41.3562 37.9491 41.4559 37.8772C41.5557 37.8052 41.6303 37.7037 41.6692 37.5869C41.83 37.1059 42.1 36.6687 42.4581 36.3095C42.8162 35.9503 43.2526 35.6789 43.7331 35.5166C43.8497 35.4776 43.951 35.403 44.0228 35.3033C44.0946 35.2036 44.1332 35.0838 44.1332 34.961C44.1332 34.8381 44.0946 34.7183 44.0228 34.6186C43.951 34.5189 43.8497 34.4443 43.7331 34.4053Z" fill="#6317B2"/>
<path d="M7.40508 10.8701C6.92455 10.7078 6.48814 10.4365 6.13005 10.0773C5.77196 9.71809 5.50193 9.28085 5.34111 8.79982C5.30226 8.68309 5.22766 8.58155 5.12787 8.50959C5.02808 8.43763 4.90818 8.39891 4.78515 8.39891C4.66213 8.39891 4.54222 8.43763 4.44244 8.50959C4.34265 8.58155 4.26804 8.68309 4.2292 8.79982C4.06838 9.28085 3.79834 9.71809 3.44026 10.0773C3.08217 10.4365 2.64576 10.7078 2.16523 10.8701C2.04871 10.9091 1.9474 10.9837 1.87561 11.0835C1.80382 11.1832 1.7652 11.3029 1.7652 11.4258C1.7652 11.5487 1.80382 11.6684 1.87561 11.7681C1.9474 11.8679 2.04871 11.9425 2.16523 11.9815C2.64576 12.1438 3.08217 12.4151 3.44026 12.7743C3.79834 13.1335 4.06838 13.5708 4.2292 14.0518C4.26804 14.1685 4.34265 14.2701 4.44244 14.342C4.54222 14.414 4.66213 14.4527 4.78515 14.4527C4.90818 14.4527 5.02808 14.414 5.12787 14.342C5.22766 14.2701 5.30226 14.1685 5.34111 14.0518C5.50193 13.5708 5.77196 13.1335 6.13005 12.7743C6.48814 12.4151 6.92455 12.1438 7.40508 11.9815C7.52159 11.9425 7.62291 11.8679 7.6947 11.7681C7.76648 11.6684 7.80511 11.5487 7.80511 11.4258C7.80511 11.3029 7.76648 11.1832 7.6947 11.0835C7.62291 10.9837 7.52159 10.9091 7.40508 10.8701Z" fill="#6317B2"/>
<path d="M12.406 6.34766C12.1935 6.34795 11.9857 6.28519 11.8088 6.16733C11.632 6.04947 11.494 5.8818 11.4125 5.68554C11.331 5.48928 11.3095 5.27324 11.3508 5.06477C11.3921 4.85629 11.4943 4.66475 11.6444 4.51437C11.7946 4.36399 11.986 4.26154 12.1944 4.21997C12.4029 4.1784 12.6189 4.19959 12.8153 4.28085C13.0117 4.36211 13.1795 4.4998 13.2976 4.67648C13.4157 4.85317 13.4788 5.06092 13.4788 5.27344C13.4788 5.55809 13.3658 5.8311 13.1646 6.03251C12.9635 6.23392 12.6907 6.34727 12.406 6.34766Z" fill="#33B4FF"/>
<path d="M39.2615 44.5313C39.049 44.5316 38.8412 44.4688 38.6643 44.3509C38.4875 44.2331 38.3496 44.0654 38.268 43.8692C38.1865 43.6729 38.165 43.4569 38.2063 43.2484C38.2476 43.0399 38.3498 42.8484 38.5 42.698C38.6501 42.5476 38.8415 42.4452 39.05 42.4036C39.2584 42.362 39.4744 42.3832 39.6708 42.4645C39.8672 42.5457 40.035 42.6834 40.1532 42.8601C40.2713 43.0368 40.3343 43.2445 40.3343 43.4571C40.3343 43.7417 40.2213 44.0147 40.0202 44.2161C39.819 44.4175 39.5462 44.5309 39.2615 44.5313Z" fill="#33B4FF"/>
</svg>
