<svg width="30" height="30" viewBox="0 0 30 30" fill="none" xmlns="http://www.w3.org/2000/svg">
<path d="M15 7.81219C10.8562 7.81219 7.5 11.1122 7.5 15.1819C7.5 18.4388 9.64875 21.2006 12.6281 22.1738C13.0031 22.2431 13.1409 22.0153 13.1409 21.8194C13.1409 21.6441 13.1344 21.1809 13.1316 20.5669C11.0456 21.0113 10.605 19.5778 10.605 19.5778C10.2638 18.7275 9.77062 18.4997 9.77062 18.4997C9.09094 18.0431 9.82312 18.0516 9.82312 18.0516C10.5759 18.1031 10.9716 18.8109 10.9716 18.8109C11.64 19.9378 12.7275 19.6125 13.1559 19.4241C13.2234 18.9478 13.4166 18.6225 13.6312 18.4388C11.9653 18.2541 10.215 17.6203 10.215 14.7966C10.215 13.9922 10.5056 13.335 10.9866 12.8194C10.9022 12.6338 10.6491 11.8838 11.0522 10.8684C11.0522 10.8684 11.6803 10.6706 13.1147 11.6241C13.7147 11.46 14.3522 11.3794 14.9897 11.3756C15.6272 11.3794 16.2647 11.46 16.8647 11.6241C18.2897 10.6706 18.9178 10.8684 18.9178 10.8684C19.3209 11.8838 19.0678 12.6328 18.9928 12.8194C19.4709 13.335 19.7616 13.9922 19.7616 14.7966C19.7616 17.6278 18.0084 18.2513 16.3397 18.4322C16.6022 18.6534 16.8459 19.1053 16.8459 19.7953C16.8459 20.7816 16.8366 21.5738 16.8366 21.8138C16.8366 22.0069 16.9678 22.2375 17.3522 22.1634C20.3531 21.1978 22.5 18.4341 22.5 15.1828C22.5 11.1122 19.1419 7.81219 15 7.81219V7.81219Z" fill="#DDDDDD"/>
</svg>
