<svg width="30" height="30" viewBox="0 0 30 30" fill="none" xmlns="http://www.w3.org/2000/svg">
<path d="M12.4072 10.0209C10.0505 12.4623 10.5648 16.5139 13.2643 18.3087C13.3533 18.3679 13.4716 18.3562 13.548 18.2814C14.1163 17.7254 14.5971 17.1869 15.0181 16.5019C15.0825 16.3971 15.0425 16.2611 14.9344 16.2025C14.5226 15.9792 14.1129 15.5603 13.8822 15.1179L13.882 15.1181C13.6057 14.5672 13.5116 13.9497 13.6579 13.3119C13.658 13.3119 13.6582 13.312 13.6584 13.312C13.8267 12.4955 14.7021 11.7359 15.3708 11.0335C15.3694 11.033 15.368 11.0325 15.3666 11.0321L17.8718 8.47186C18.8702 7.4516 20.5124 7.44319 21.5211 8.4532C22.54 9.4528 22.5569 11.1054 21.5585 12.1256L20.0411 13.688C19.9709 13.7603 19.9481 13.8658 19.9809 13.9612C20.3303 14.9757 20.4163 16.4061 20.1821 17.4868C20.1756 17.5171 20.2129 17.5369 20.2345 17.5148L23.4641 14.2143C25.5272 12.1059 25.5097 8.67319 23.4252 6.58602C21.2979 4.456 17.8347 4.47373 15.7292 6.62535L12.4201 10.007C12.4158 10.0116 12.4116 10.0163 12.4072 10.0209Z" fill="#7040c2"/>
<path d="M18.4454 18.7738C18.4454 18.7739 18.4453 18.774 18.4453 18.7742C18.4473 18.7733 18.4492 18.7725 18.4513 18.7716C19.1104 17.5648 19.2402 16.1808 18.9313 14.8316L18.9299 14.833L18.9283 14.8324C18.635 13.6307 17.8302 12.4374 16.7372 11.7028C16.6432 11.6396 16.493 11.6469 16.4049 11.7182C15.8513 12.1664 15.3093 12.7412 14.9517 13.4747C14.8956 13.5899 14.9376 13.7282 15.0483 13.7925C15.4633 14.0338 15.8381 14.387 16.089 14.8559L16.0894 14.8556C16.285 15.1869 16.4777 15.8154 16.3529 16.4907C16.3528 16.4907 16.3527 16.4907 16.3526 16.4907C16.2361 17.3861 15.3331 18.2073 14.6153 18.9474L14.6156 18.9477C14.0692 19.5072 12.6801 20.9251 12.1239 21.4941C11.1256 22.5143 9.47514 22.5312 8.45621 21.5316C7.43728 20.532 7.42044 18.8794 8.41877 17.8592L9.94071 16.292C10.0097 16.221 10.0331 16.1178 10.0025 16.0236C9.66452 14.9854 9.57194 13.5872 9.78524 12.5077C9.79118 12.4776 9.75421 12.4584 9.73276 12.4803L6.55174 15.7311C4.46746 17.8612 4.48513 21.3291 6.59106 23.4377C8.71825 25.5245 12.1639 25.4893 14.2481 23.3594C14.9722 22.5484 18.0716 19.6751 18.4454 18.7738Z" fill="#7040c2"/>
</svg>
