<svg width="500" height="278" viewBox="0 0 500 278" fill="none" xmlns="http://www.w3.org/2000/svg">
<g clip-path="url(#clip0)">
<path opacity="0.1" d="M500 181.686C500.027 196.13 496.078 210.303 488.584 222.657C488.584 237.766 481.53 251.461 470.087 261.442C467.223 263.937 464.139 266.169 460.874 268.111C460.743 268.194 460.607 268.272 460.472 268.351C460.227 268.495 459.982 268.639 459.733 268.787L459.502 268.922C458.457 269.512 457.391 270.079 456.302 270.611C446.274 275.535 435.24 278.075 424.065 278.031H94.9168C92.2944 278.031 89.6953 277.926 87.1196 277.716C77.966 276.996 68.9712 274.917 60.4325 271.545C58.7658 270.888 57.1312 270.181 55.5287 269.424C54.7653 269.066 54.0091 268.698 53.2603 268.32C52.7926 268.085 52.325 267.84 51.8617 267.596C49.0506 266.103 46.3276 264.451 43.7061 262.647C41.3102 261.009 39.005 259.244 36.8005 257.357C21.9272 244.614 12.7271 226.978 12.7271 207.518C4.39036 194.7 -0.0317455 179.736 -0.000198593 164.452C-0.000198593 121.185 34.6327 86.1102 77.36 86.1102C78.6711 86.1102 79.9823 86.1494 81.2935 86.2193C81.4815 86.2193 81.665 86.2193 81.853 86.2454C89.0558 73.9864 98.6843 62.7224 110.262 52.8069C141.835 25.7924 187.981 8.76331 239.384 8.76331C282.574 8.76331 322.054 20.7867 352.294 40.6526C363.754 34.1843 376.697 30.7936 389.86 30.8113C432.579 30.8113 467.22 65.8864 467.22 109.153C467.214 111.891 467.068 114.626 466.783 117.349C477.08 124.628 485.474 134.273 491.255 145.47C497.036 156.667 500.035 169.089 500 181.686Z" fill="#7040C2"/>
<path opacity="0.1" d="M398.029 119.566V114.883C401.697 113.396 404.733 110.682 406.618 107.206C408.502 103.729 409.118 99.7068 408.359 95.8269C407.601 91.9471 405.515 88.4514 402.459 85.9382C399.403 83.425 395.567 82.0508 391.608 82.0508C387.649 82.0508 383.814 83.425 380.758 85.9382C377.702 88.4514 375.616 91.9471 374.857 95.8269C374.099 99.7068 374.714 103.729 376.599 107.206C378.483 110.682 381.52 113.396 385.188 114.883V119.566C380.912 120.753 377.048 123.099 374.025 126.344C370.824 121.547 366.003 118.059 360.441 116.516V111.828C364.109 110.341 367.146 107.627 369.03 104.151C370.915 100.674 371.531 96.6518 370.772 92.772C370.013 88.8922 367.927 85.3964 364.871 82.8832C361.816 80.3701 357.98 78.9958 354.021 78.9958C350.062 78.9958 346.226 80.3701 343.17 82.8832C340.115 85.3964 338.029 88.8922 337.27 92.772C336.511 96.6518 337.127 100.674 339.012 104.151C340.896 107.627 343.932 110.341 347.6 111.828V116.511C343.798 117.565 340.314 119.538 337.456 122.255C334.267 117.98 329.745 114.885 324.602 113.456V108.773C328.27 107.286 331.307 104.572 333.191 101.096C335.076 97.6194 335.691 93.5969 334.933 89.7171C334.174 85.8372 332.088 82.3415 329.032 79.8283C325.976 77.3151 322.141 75.9409 318.182 75.9409C314.223 75.9409 310.387 77.3151 307.331 79.8283C304.275 82.3415 302.19 85.8372 301.431 89.7171C300.672 93.5969 301.288 97.6194 303.172 101.096C305.057 104.572 308.093 107.286 311.761 108.773V113.456C307.386 114.674 303.446 117.104 300.398 120.465C299.039 116.986 296.887 113.871 294.112 111.366C291.338 108.862 288.018 107.037 284.414 106.037V101.354C288.082 99.8672 291.119 97.1531 293.003 93.6767C294.888 90.2002 295.503 86.1777 294.745 82.2979C293.986 78.4181 291.9 74.9223 288.844 72.4091C285.789 69.896 281.953 68.5217 277.994 68.5217C274.035 68.5217 270.199 69.896 267.143 72.4091C264.087 74.9223 262.002 78.4181 261.243 82.2979C260.484 86.1777 261.1 90.2002 262.984 93.6767C264.869 97.1531 267.905 99.8672 271.573 101.354V106.037C266.89 107.339 262.712 110.029 259.591 113.751C256.469 117.473 254.552 122.052 254.091 126.885C251.885 125.356 249.437 124.21 246.849 123.494V118.811C250.517 117.324 253.553 114.61 255.438 111.133C257.322 107.657 257.938 103.635 257.179 99.7547C256.421 95.8749 254.335 92.3791 251.279 89.866C248.223 87.3528 244.387 85.9786 240.428 85.9786C236.469 85.9786 232.634 87.3528 229.578 89.866C226.522 92.3791 224.436 95.8749 223.677 99.7547C222.919 103.635 223.534 107.657 225.419 111.133C227.303 114.61 230.34 117.324 234.008 118.811V123.494C230.743 124.402 227.707 125.986 225.097 128.145C222.487 130.303 220.361 132.986 218.859 136.019C216.834 134.72 214.624 133.734 212.303 133.095V128.412C215.971 126.925 219.008 124.211 220.892 120.735C222.777 117.258 223.392 113.236 222.634 109.356C221.875 105.476 219.789 101.98 216.733 99.4672C213.677 96.9541 209.842 95.5798 205.883 95.5798C201.924 95.5798 198.088 96.9541 195.032 99.4672C191.976 101.98 189.891 105.476 189.132 109.356C188.373 113.236 188.989 117.258 190.873 120.735C192.758 124.211 195.794 126.925 199.462 128.412V133.095C197.273 133.699 195.181 134.613 193.252 135.81C191.739 132.826 189.621 130.19 187.032 128.07C184.442 125.949 181.439 124.391 178.212 123.494V118.811C181.88 117.324 184.917 114.61 186.801 111.133C188.686 107.657 189.302 103.635 188.543 99.7547C187.784 95.8749 185.698 92.3791 182.642 89.866C179.587 87.3528 175.751 85.9786 171.792 85.9786C167.833 85.9786 163.997 87.3528 160.941 89.866C157.886 92.3791 155.8 95.8749 155.041 99.7547C154.282 103.635 154.898 107.657 156.782 111.133C158.667 114.61 161.703 117.324 165.371 118.811V123.494C161.899 124.458 158.688 126.189 155.975 128.558C153.261 130.926 151.115 133.873 149.694 137.18C147.25 135.307 144.468 133.92 141.499 133.095V128.412C145.167 126.925 148.203 124.211 150.088 120.735C151.973 117.258 152.588 113.236 151.83 109.356C151.071 105.476 148.985 101.98 145.929 99.4672C142.873 96.9541 139.038 95.5798 135.079 95.5798C131.12 95.5798 127.284 96.9541 124.228 99.4672C121.172 101.98 119.086 105.476 118.328 109.356C117.569 113.236 118.185 117.258 120.069 120.735C121.954 124.211 124.99 126.925 128.658 128.412V133.095C123.593 134.497 119.127 137.518 115.945 141.696C112.763 145.873 111.04 150.977 111.04 156.226V264.458H159.091V254.857H181.818V264.458H229.895V254.857H264.423V237.4H294.143V244.819H329.982V247.874H367.57V250.929H415.647V142.696C415.647 137.448 413.924 132.344 410.742 128.167C407.56 123.989 403.094 120.968 398.029 119.566Z" fill="#7040C2"/>
<path d="M214.502 73.7551H254.462C264.236 73.7546 273.914 75.6763 282.944 79.4107C291.974 83.145 300.179 88.6188 307.09 95.5196C314.002 102.42 319.484 110.613 323.224 119.629C326.965 128.646 328.89 138.309 328.89 148.069V248.76H140.079V148.069C140.079 128.36 147.92 109.458 161.877 95.5211C175.834 81.5846 194.763 73.7551 214.502 73.7551Z" fill="#2F2E41"/>
<path opacity="0.2" d="M218.872 77.8051H250.092C259.866 77.8045 269.544 79.7262 278.574 83.4606C287.604 87.195 295.808 92.6688 302.72 99.5695C309.631 106.47 315.113 114.663 318.854 123.679C322.594 132.696 324.519 142.359 324.519 152.119V244.705H144.449V152.119C144.449 132.41 152.29 113.508 166.247 99.571C180.204 85.6345 199.134 77.8051 218.872 77.8051Z" fill="black"/>
<path d="M456.294 262.983V270.603C446.265 275.527 435.231 278.066 424.056 278.022H94.917C92.2946 278.022 89.6955 277.917 87.1198 277.708C77.9662 276.988 68.9714 274.908 60.4327 271.537C58.766 270.879 57.1314 270.172 55.5289 269.416C54.7654 269.058 54.0093 268.69 53.2605 268.311C52.7928 268.076 52.3252 267.831 51.8619 267.587C49.051 266.097 46.328 264.448 43.7063 262.647V241.952C43.7063 238.607 45.0371 235.399 47.4059 233.033C49.7747 230.668 52.9874 229.339 56.3374 229.339H419.637C422.693 229.345 425.644 230.456 427.941 232.468L451.98 253.504C453.334 254.686 454.419 256.143 455.163 257.778C455.907 259.412 456.293 261.187 456.294 262.983Z" fill="#2F2E41"/>
<path d="M210.957 98.5482C201.426 99.1766 191.932 100.195 182.474 101.603C179.786 102.005 177.058 102.45 174.607 103.637C172.701 104.633 170.945 105.891 169.388 107.373C162.367 113.653 156.714 121.308 152.78 129.861C150.345 135.164 148.597 140.772 146.302 146.118C138.134 165.211 123.317 180.827 114.694 199.719C112.828 203.808 111.254 208.077 110.629 212.524C109.982 217.124 110.717 222.492 114.502 225.18C116.25 226.415 118.374 226.926 120.454 227.362C146.644 233.153 173.138 237.473 199.812 240.302C196.923 237.518 195.957 233.201 196.337 229.213C196.718 225.224 198.287 221.453 199.834 217.756C184.738 214.431 169.679 210.94 154.659 207.282C152.417 206.737 149.725 205.711 149.449 203.424C149.309 202.259 149.886 201.138 150.454 200.112C156.861 188.529 164.542 177.697 173.357 167.817C173.357 180.063 172.749 193.893 172.749 206.143H314.401C312.698 199.154 311.696 192.012 311.412 184.824C310.752 161.362 318.663 138.079 316.608 114.665C316.416 112.505 316.119 110.279 314.987 108.429C313.033 105.234 309.135 103.912 305.551 102.821C291.809 98.6486 277.78 94.4284 263.418 94.7557C259.148 94.8561 254.895 95.3536 250.651 95.8555C237.718 97.3786 223.951 97.6884 210.957 98.5482Z" fill="#7040C2"/>
<path d="M144.615 239.298L154.93 272.261C154.996 272.47 155.127 272.652 155.304 272.782C155.481 272.911 155.694 272.981 155.913 272.981H200.175L189.685 234.576L145.516 237.967C145.362 237.98 145.213 238.027 145.08 238.105C144.946 238.183 144.832 238.289 144.746 238.417C144.66 238.545 144.603 238.69 144.58 238.843C144.558 238.995 144.57 239.151 144.615 239.298Z" fill="#656478"/>
<path d="M220.28 112.723C218.357 113.827 216.114 114.224 213.929 114.604L199.825 117.048C197.08 117.524 194.191 118.065 192.076 119.876C187.749 123.572 188.684 130.376 189.996 135.91L192.618 147.013C194.594 155.357 196.613 163.802 200.664 171.361C207.74 184.554 220.721 194.054 234.996 198.632C240.096 200.269 245.485 201.334 250.809 200.749C261.237 199.606 270.157 192.182 275.656 183.257C281.154 174.333 283.772 163.981 286.171 153.777C288.475 144.01 290.664 134.103 290.516 124.066C290.472 120.941 290.157 117.676 288.488 115.027C284.83 109.21 276.538 108.773 269.742 109.847C268.684 110.017 267.587 110.201 266.569 109.882C263.51 108.931 263.44 104.737 262.128 101.826C259.65 96.3355 252.299 95.3622 246.289 95.8597C240.28 96.3573 230.922 96.9988 225.686 100.399C220.651 103.65 226.184 109.323 220.28 112.723Z" fill="#FBBEBE"/>
<path opacity="0.1" d="M220.28 112.723C218.357 113.827 216.114 114.224 213.929 114.604L199.825 117.048C197.08 117.524 194.191 118.065 192.076 119.876C187.749 123.572 188.684 130.376 189.996 135.91L192.618 147.013C194.594 155.357 196.613 163.802 200.664 171.361C207.74 184.554 220.721 194.054 234.996 198.632C240.096 200.269 245.485 201.334 250.809 200.749C261.237 199.606 270.157 192.182 275.656 183.257C281.154 174.333 283.772 163.981 286.171 153.777C288.475 144.01 290.664 134.103 290.516 124.066C290.472 120.941 290.157 117.676 288.488 115.027C284.83 109.21 276.538 108.773 269.742 109.847C268.684 110.017 267.587 110.201 266.569 109.882C263.51 108.931 263.44 104.737 262.128 101.826C259.65 96.3355 252.299 95.3622 246.289 95.8597C240.28 96.3573 230.922 96.9988 225.686 100.399C220.651 103.65 226.184 109.323 220.28 112.723Z" fill="black"/>
<path d="M208.606 125.231C210.739 129.7 212.338 134.439 214.917 138.668C216.967 142.029 219.594 144.992 222.207 147.938C228.977 155.584 235.835 163.291 244.213 169.113C247.683 151.314 256.065 134.838 268.414 121.543C272.024 117.672 276.543 113.858 281.84 114.002C285.127 114.094 288.16 115.721 290.896 117.532C293.956 119.553 296.849 121.897 299.047 124.808C302.522 129.442 304.021 135.312 304.292 141.095C304.563 146.877 303.663 152.647 302.771 158.364L298.182 187.914C297.915 189.625 297.544 191.515 296.145 192.54C295.351 193.043 294.456 193.364 293.523 193.483C276.84 196.725 259.646 194.622 242.649 194.456C223.855 194.277 204.541 196.416 186.74 190.445C185.809 190.131 184.843 189.769 184.213 189.023C183.8 188.46 183.503 187.82 183.339 187.142C179.192 173.735 182.518 159.329 184.978 145.516C186.927 134.57 188.314 123.531 189.135 112.444C189.209 111.444 200.205 113.653 201.434 114.36C204.777 116.337 206.997 121.862 208.606 125.231Z" fill="#7040C2"/>
<g opacity="0.2">
<path opacity="0.2" d="M72.9326 234.266C72.9326 234.467 72.9108 234.663 72.8889 234.855C71.2223 234.198 69.5876 233.491 67.9851 232.734C67.129 232.622 66.3328 232.234 65.7167 231.63C65.2491 231.395 64.7814 231.15 64.3181 230.906C64.423 230.686 64.5412 230.474 64.6721 230.269C65.5725 228.846 66.9405 227.956 68.4484 228.004C69.9562 228.052 71.263 229.025 72.0716 230.496C72.69 231.653 72.9873 232.955 72.9326 234.266Z" fill="#3F3D56"/>
<path opacity="0.2" d="M73.1687 226.795C73.1389 228.104 72.7602 229.381 72.0716 230.496C71.1713 231.914 69.8033 232.804 68.2954 232.756L67.9851 232.734C67.129 232.622 66.3328 232.234 65.7167 231.63C65.299 231.234 64.9465 230.775 64.6722 230.269C64.069 229.107 63.774 227.81 63.8153 226.502C63.8567 225.194 64.2329 223.919 64.9082 222.797C65.8085 221.374 67.1765 220.484 68.6844 220.532C70.1923 220.58 71.4991 221.553 72.3077 223.024C72.926 224.182 73.2233 225.484 73.1687 226.795Z" fill="#3F3D56"/>
<path opacity="0.2" d="M73.4046 219.334C73.5114 215.959 71.5052 213.157 68.9237 213.076C66.3422 212.994 64.1629 215.664 64.0561 219.039C63.9493 222.415 65.9554 225.217 68.5369 225.298C71.1184 225.38 73.2978 222.71 73.4046 219.334Z" fill="#3F3D56"/>
<path opacity="0.2" d="M73.643 211.863C73.7498 208.488 71.7436 205.686 69.1621 205.604C66.5806 205.523 64.4013 208.193 64.2945 211.568C64.1877 214.943 66.1938 217.745 68.7753 217.827C71.3568 217.908 73.5361 215.238 73.643 211.863Z" fill="#3F3D56"/>
<path opacity="0.2" d="M73.8771 204.391C73.9839 201.016 71.9777 198.214 69.3962 198.133C66.8147 198.051 64.6354 200.721 64.5286 204.096C64.4218 207.471 66.4279 210.274 69.0094 210.355C71.5909 210.436 73.7703 207.766 73.8771 204.391Z" fill="#3F3D56"/>
<path opacity="0.2" d="M53.3224 152.551C52.7069 151.719 52.1519 150.844 51.6615 149.932L64.0129 148.304L50.7 147.99C49.5135 145.18 48.9136 142.158 48.9369 139.108C48.9602 136.059 49.6062 133.046 50.8355 130.254L68.3705 140.047L52.3084 127.461C53.9287 124.844 56.072 122.589 58.6044 120.836C61.1368 119.084 64.0038 117.871 67.0265 117.275C70.0492 116.679 73.1626 116.711 76.1723 117.37C79.1819 118.029 82.0232 119.3 84.5186 121.105C87.0139 122.91 89.1099 125.209 90.6754 127.859C92.241 130.509 93.2425 133.453 93.6175 136.506C93.9925 139.56 93.733 142.658 92.855 145.607C91.977 148.556 90.4995 151.293 88.5147 153.646C89.4711 154.941 90.2844 156.336 90.9404 157.805L74.7385 165.591L91.9282 160.428C93.0111 163.994 93.1866 167.772 92.4387 171.422C91.6908 175.072 90.0432 178.479 87.6449 181.333C90.1414 184.714 91.6342 188.729 91.9526 192.918C92.271 197.108 91.4021 201.302 89.4453 205.021C87.4886 208.74 84.5229 211.834 80.8877 213.949C77.2525 216.064 73.0945 217.114 68.8894 216.98C64.6842 216.846 60.6017 215.533 57.109 213.191C53.6162 210.849 50.8542 207.572 49.1389 203.736C47.4236 199.9 46.8243 195.659 47.4096 191.499C47.9948 187.339 49.7409 183.427 52.4482 180.211C49.4666 176.171 47.9318 171.246 48.0903 166.23C48.2489 161.213 50.0916 156.396 53.3224 152.551Z" fill="#7040C2"/>
<path opacity="0.1" d="M92.8758 167.638C92.7218 172.658 90.8736 177.48 87.6311 181.32C90.1309 184.7 91.6273 188.715 91.9488 192.904C92.2703 197.094 91.404 201.29 89.449 205.011C87.4941 208.732 84.5295 211.828 80.8945 213.945C77.2595 216.063 73.101 217.115 68.8949 216.983C64.6887 216.85 60.6049 215.538 57.1109 213.196C53.6168 210.854 50.8535 207.577 49.1374 203.741C47.4213 199.904 46.8216 195.662 47.407 191.501C47.9924 187.34 49.7392 183.427 52.4475 180.211C49.5498 176.31 92.9545 165.128 92.8758 167.638Z" fill="black"/>
</g>
<path opacity="0.1" d="M29.7291 71.0536C34.9502 71.0536 39.1827 66.8273 39.1827 61.6138C39.1827 56.4004 34.9502 52.1741 29.7291 52.1741C24.5079 52.1741 20.2754 56.4004 20.2754 61.6138C20.2754 66.8273 24.5079 71.0536 29.7291 71.0536Z" fill="#7040C2"/>
<path opacity="0.1" d="M69.1302 18.8796C74.3513 18.8796 78.5839 14.6532 78.5839 9.43978C78.5839 4.22633 74.3513 0 69.1302 0C63.9091 0 59.6765 4.22633 59.6765 9.43978C59.6765 14.6532 63.9091 18.8796 69.1302 18.8796Z" fill="#7040C2"/>
<path opacity="0.1" d="M65.9265 61.1033C74.6767 61.1033 81.7701 54.0203 81.7701 45.283C81.7701 36.5457 74.6767 29.4628 65.9265 29.4628C57.1764 29.4628 50.083 36.5457 50.083 45.283C50.083 54.0203 57.1764 61.1033 65.9265 61.1033Z" fill="#7040C2"/>
<path d="M237.325 117.615C257.601 117.615 274.038 101.202 274.038 80.9561C274.038 60.7097 257.601 44.2968 237.325 44.2968C217.049 44.2968 200.612 60.7097 200.612 80.9561C200.612 101.202 217.049 117.615 237.325 117.615Z" fill="#FBBEBE"/>
<path d="M222.413 9.02082C212.618 10.2603 202.046 11.8968 195.122 18.9232C191.25 22.851 188.982 28.088 187.115 33.2727C184.222 41.3465 182.067 49.8567 182.745 58.4236C183.348 66.0872 186.189 73.9253 183.89 81.2659C182.832 84.6438 180.756 87.594 179.143 90.7406C176.154 96.5843 174.747 103.135 174.231 109.677C173.872 114.176 173.942 118.807 175.424 123.071C177.002 127.609 180.079 131.472 182.028 135.862C184.913 142.347 185.201 149.644 185.424 156.736C185.647 163.828 185.835 170.872 186.001 177.937C186.106 182.38 186.115 187.137 183.654 190.842C192.74 187.207 201.954 183.497 209.729 177.562C217.504 171.627 223.798 163.069 224.803 153.345C225.616 145.463 222.95 137.695 220.651 130.11C214.969 111.344 211.298 91.3385 215.433 72.1753C216.923 65.2755 220.546 57.5726 227.5 56.3026C231.744 55.5302 235.979 57.4635 239.803 59.4623C248.842 64.1844 258.16 70.2943 261.525 79.9086C264.585 88.6021 262.011 98.2863 258.029 106.587C254.047 114.888 248.628 122.521 245.533 131.197C240.782 144.508 242.12 160.092 250.013 171.819C257.907 183.545 272.491 190.76 286.517 188.865C285.42 184.135 281.98 180.312 280.136 175.816C276.783 167.651 279.043 158.259 282.649 150.203C286.254 142.147 291.176 134.636 293.431 126.082C295.022 120.059 295.214 113.766 295.205 107.538C295.205 97.7364 294.72 87.93 293.776 78.1717C292.832 68.4133 291.39 58.5328 288.278 49.1453C285.778 41.6171 282.137 34.3376 276.691 28.5637C270.896 22.4146 263.352 18.2468 255.944 14.1619C251.512 11.7266 246.984 9.26086 242.011 8.34874C238.077 7.62864 233.942 6.60305 229.93 6.53759C227.203 6.49831 224.336 7.08748 222.413 9.02082Z" fill="#434175"/>
<path d="M291.512 56.3371L267.892 51.7612C267.205 51.6281 266.54 52.0764 266.407 52.7626L255.09 111.004C254.957 111.69 255.406 112.354 256.093 112.487L279.713 117.063C280.4 117.196 281.065 116.748 281.199 116.062L292.515 57.8206C292.649 57.1345 292.2 56.4703 291.512 56.3371Z" fill="#656478"/>
<path d="M293.298 56.6831L269.678 52.1071C268.991 51.974 268.326 52.4224 268.192 53.1085L256.876 111.35C256.742 112.036 257.191 112.7 257.879 112.833L281.498 117.409C282.186 117.542 282.851 117.094 282.984 116.408L294.301 58.1666C294.434 57.4804 293.985 56.8162 293.298 56.6831Z" fill="#3F3D56"/>
<path d="M280.684 67.8871C281.146 65.5091 280.724 63.4269 279.74 63.2364C278.757 63.0459 277.585 64.8192 277.123 67.1972C276.661 69.5752 277.084 71.6574 278.067 71.8479C279.051 72.0384 280.222 70.2651 280.684 67.8871Z" fill="#7040C2"/>
<path d="M286.276 87.7206C285.122 85.6825 283.89 83.5746 281.945 82.2697C280.827 81.585 279.625 81.0467 278.37 80.668C274.135 79.1886 269.83 77.696 265.35 77.4603C264.62 77.4254 263.785 77.4603 263.309 78.019C262.33 79.1668 263.881 80.7291 265.223 81.4231L275.896 86.9438L266.058 85.9051C264.628 85.7523 262.592 86.1408 262.697 87.5722C262.767 88.5105 263.798 89.0211 264.69 89.3179C271.005 91.5 278.304 93.2108 281.761 98.9192C277.155 98.4827 272.448 98.0463 267.933 99.0588C266.696 99.3381 265.415 99.7702 264.607 100.743C263.798 101.717 263.706 103.362 264.725 104.134C265.354 104.601 266.202 104.614 266.989 104.571C270.192 104.418 273.479 103.781 276.556 104.693C279.633 105.605 282.365 108.826 281.302 111.846C284.03 112.09 287.255 111.846 289.777 110.672C292.557 109.363 292.491 106.901 292.321 103.934C291.958 98.1205 289.069 92.6958 286.276 87.7206Z" fill="#FBBEBE"/>
<path opacity="0.1" d="M283.518 182.856C281.073 165.682 277.717 148.649 273.466 131.83C271.281 123.101 268.798 114.224 269.423 105.243C278.453 106.391 286.543 107.242 294.865 103.558C295 108.276 298.427 112.287 299.672 116.847C300.507 119.902 300.192 123.136 300.52 126.283C300.848 129.429 301.831 132.48 302.675 135.539C306.86 150.699 307.847 166.562 305.573 182.123C297.85 183.039 291.224 184.047 283.518 182.856Z" fill="black"/>
<path d="M282.207 182.856C279.761 165.682 276.406 148.649 272.155 131.83C269.969 123.101 267.487 114.224 268.112 105.243C277.142 106.391 285.232 107.242 293.553 103.558C293.689 108.276 297.115 112.287 298.361 116.847C299.196 119.902 298.881 123.136 299.209 126.283C299.537 129.429 300.52 132.48 301.364 135.539C305.549 150.699 306.536 166.562 304.261 182.123C296.539 183.039 289.913 184.047 282.207 182.856Z" fill="#7040C2"/>
<path d="M155.87 267.862L160.149 161.868C160.217 160.184 160.939 158.592 162.163 157.43C163.387 156.268 165.016 155.628 166.705 155.645L335.638 157.26C336.533 157.269 337.417 157.463 338.233 157.829C339.05 158.196 339.782 158.727 340.383 159.389C340.984 160.051 341.442 160.83 341.727 161.678C342.013 162.525 342.119 163.422 342.041 164.312L333.116 265.854C332.976 267.451 332.249 268.94 331.074 270.032C329.9 271.125 328.362 271.745 326.757 271.772L162.474 274.609C161.589 274.624 160.711 274.459 159.893 274.123C159.075 273.787 158.334 273.288 157.716 272.656C157.098 272.025 156.615 271.274 156.298 270.449C155.98 269.625 155.835 268.744 155.87 267.862Z" fill="#3F3D56"/>
<path d="M250.219 212.537C254.322 212.537 257.649 208.629 257.649 203.808C257.649 198.988 254.322 195.08 250.219 195.08C246.115 195.08 242.788 198.988 242.788 203.808C242.788 208.629 246.115 212.537 250.219 212.537Z" fill="#7040C2"/>
<path d="M409.091 197.812L408.741 200.806L403.059 249.187C388.247 259.5 376.726 249.589 376.626 249.187L369.467 200.579L369.06 197.812H409.091Z" fill="#3F3D56"/>
<path opacity="0.1" d="M409.091 197.812L408.741 200.806C392.054 210.494 374.253 202.953 369.467 200.579L369.06 197.812H409.091Z" fill="black"/>
<path d="M368.226 195.185V199.549C368.226 199.549 390.297 212.362 410.184 199.549V195.185H368.226Z" fill="#7040C2"/>
<path d="M370.791 189.42C370.791 189.42 370.149 192.366 368.226 192.623V196.337H410.184V193.007C410.184 193.007 407.618 192.366 407.998 189.42H370.791Z" fill="#7040C2"/>
<path d="M389.078 195.185C399.53 195.185 408.003 192.746 408.003 189.738C408.003 186.73 399.53 184.292 389.078 184.292C378.626 184.292 370.153 186.73 370.153 189.738C370.153 192.746 378.626 195.185 389.078 195.185Z" fill="#7040C2"/>
<path opacity="0.1" d="M389.078 195.185C399.53 195.185 408.003 192.746 408.003 189.738C408.003 186.73 399.53 184.292 389.078 184.292C378.626 184.292 370.153 186.73 370.153 189.738C370.153 192.746 378.626 195.185 389.078 195.185Z" fill="black"/>
<path opacity="0.1" d="M405.691 189.42C405.691 191.602 398.514 193.391 389.655 193.391H389.183C383.234 193.347 378.094 192.518 375.472 191.279C374.288 190.72 373.615 190.087 373.615 189.42C373.615 188.311 375.45 187.307 378.422 186.587C382.115 185.781 385.888 185.399 389.668 185.448C398.514 185.448 405.691 187.224 405.691 189.42Z" fill="black"/>
<path opacity="0.1" d="M389.183 193.391C383.234 193.347 378.094 192.518 375.472 191.279L378.409 186.57L389.183 193.391Z" fill="black"/>
<path opacity="0.1" d="M372.421 189.725C372.194 189.677 371.892 189.756 371.849 189.983C371.843 190.098 371.873 190.213 371.936 190.31C372.437 191.101 373.165 191.723 374.025 192.095C374.172 192.178 374.334 192.23 374.502 192.248C374.589 192.258 374.677 192.242 374.755 192.202C374.833 192.161 374.897 192.098 374.939 192.021C374.963 191.955 374.973 191.885 374.967 191.815C374.962 191.745 374.942 191.676 374.908 191.615C374.774 191.379 374.589 191.176 374.366 191.021C373.781 190.563 373.182 189.852 372.421 189.725Z" fill="black"/>
<path d="M389.716 236.374C395.951 236.374 401.005 231.327 401.005 225.101C401.005 218.876 395.951 213.829 389.716 213.829C383.481 213.829 378.427 218.876 378.427 225.101C378.427 231.327 383.481 236.374 389.716 236.374Z" fill="#7040C2"/>
<path d="M82.3121 225.128H87.6049C90.5028 225.128 93.282 226.277 95.3312 228.323C97.3803 230.369 98.5315 233.145 98.5315 236.038V252.251H71.3855V236.038C71.3855 233.145 72.5367 230.369 74.5858 228.323C76.6349 226.277 79.4142 225.128 82.3121 225.128Z" fill="#3F3D56"/>
<path opacity="0.1" d="M82.3121 225.128H87.6049C90.5028 225.128 93.282 226.277 95.3312 228.323C97.3803 230.369 98.5315 233.145 98.5315 236.038V252.251H71.3855V236.038C71.3855 233.145 72.5367 230.369 74.5858 228.323C76.6349 226.277 79.4142 225.128 82.3121 225.128Z" fill="black"/>
<path d="M83.8724 231.093C85.0721 231.093 86.0446 230.122 86.0446 228.924C86.0446 227.726 85.0721 226.755 83.8724 226.755C82.6727 226.755 81.7002 227.726 81.7002 228.924C81.7002 230.122 82.6727 231.093 83.8724 231.093Z" fill="#3F3D56"/>
<path d="M83.8724 228.383C85.0721 228.383 86.0446 227.412 86.0446 226.214C86.0446 225.017 85.0721 224.045 83.8724 224.045C82.6727 224.045 81.7002 225.017 81.7002 226.214C81.7002 227.412 82.6727 228.383 83.8724 228.383Z" fill="#3F3D56"/>
<path d="M83.8724 225.669C85.0721 225.669 86.0446 224.698 86.0446 223.5C86.0446 222.302 85.0721 221.331 83.8724 221.331C82.6727 221.331 81.7002 222.302 81.7002 223.5C81.7002 224.698 82.6727 225.669 83.8724 225.669Z" fill="#3F3D56"/>
<path d="M83.8724 222.959C85.0721 222.959 86.0446 221.988 86.0446 220.79C86.0446 219.592 85.0721 218.621 83.8724 218.621C82.6727 218.621 81.7002 219.592 81.7002 220.79C81.7002 221.988 82.6727 222.959 83.8724 222.959Z" fill="#3F3D56"/>
<path d="M83.8724 220.248C85.0721 220.248 86.0446 219.277 86.0446 218.079C86.0446 216.882 85.0721 215.91 83.8724 215.91C82.6727 215.91 81.7002 216.882 81.7002 218.079C81.7002 219.277 82.6727 220.248 83.8724 220.248Z" fill="#3F3D56"/>
<path d="M83.8724 217.538C85.0721 217.538 86.0446 216.567 86.0446 215.369C86.0446 214.171 85.0721 213.2 83.8724 213.2C82.6727 213.2 81.7002 214.171 81.7002 215.369C81.7002 216.567 82.6727 217.538 83.8724 217.538Z" fill="#3F3D56"/>
<path d="M83.8724 214.828C85.0721 214.828 86.0446 213.857 86.0446 212.659C86.0446 211.461 85.0721 210.49 83.8724 210.49C82.6727 210.49 81.7002 211.461 81.7002 212.659C81.7002 213.857 82.6727 214.828 83.8724 214.828Z" fill="#3F3D56"/>
<path d="M87.1329 215.91C88.3326 215.91 89.3051 214.939 89.3051 213.741C89.3051 212.543 88.3326 211.572 87.1329 211.572C85.9332 211.572 84.9607 212.543 84.9607 213.741C84.9607 214.939 85.9332 215.91 87.1329 215.91Z" fill="#3F3D56"/>
<path d="M89.305 214.828C90.5047 214.828 91.4772 213.857 91.4772 212.659C91.4772 211.461 90.5047 210.49 89.305 210.49C88.1053 210.49 87.1328 211.461 87.1328 212.659C87.1328 213.857 88.1053 214.828 89.305 214.828Z" fill="#3F3D56"/>
<path d="M91.4773 213.741C92.6769 213.741 93.6495 212.77 93.6495 211.572C93.6495 210.374 92.6769 209.403 91.4773 209.403C90.2776 209.403 89.3051 210.374 89.3051 211.572C89.3051 212.77 90.2776 213.741 91.4773 213.741Z" fill="#3F3D56"/>
<path d="M83.8724 212.118C85.0721 212.118 86.0446 211.147 86.0446 209.949C86.0446 208.751 85.0721 207.78 83.8724 207.78C82.6727 207.78 81.7002 208.751 81.7002 209.949C81.7002 211.147 82.6727 212.118 83.8724 212.118Z" fill="#3F3D56"/>
<path d="M83.8724 209.408C85.0721 209.408 86.0446 208.437 86.0446 207.239C86.0446 206.041 85.0721 205.07 83.8724 205.07C82.6727 205.07 81.7002 206.041 81.7002 207.239C81.7002 208.437 82.6727 209.408 83.8724 209.408Z" fill="#3F3D56"/>
<path d="M83.8724 206.693C85.0721 206.693 86.0446 205.722 86.0446 204.524C86.0446 203.326 85.0721 202.355 83.8724 202.355C82.6727 202.355 81.7002 203.326 81.7002 204.524C81.7002 205.722 82.6727 206.693 83.8724 206.693Z" fill="#3F3D56"/>
<path d="M83.8724 203.983C85.0721 203.983 86.0446 203.012 86.0446 201.814C86.0446 200.616 85.0721 199.645 83.8724 199.645C82.6727 199.645 81.7002 200.616 81.7002 201.814C81.7002 203.012 82.6727 203.983 83.8724 203.983Z" fill="#3F3D56"/>
<path d="M92.8759 194.823C92.3383 194.901 91.7963 194.958 91.2544 194.993C91.7601 194.551 92.2293 194.07 92.6573 193.553C92.3549 192.642 91.9126 191.783 91.3462 191.008C90.8077 191.31 90.2125 191.497 89.5979 191.558C89.0603 191.637 88.5184 191.693 87.9764 191.733C88.6888 191.152 89.3531 190.279 90.0524 189.551C88.4363 188.087 86.3528 187.244 84.1725 187.17C81.9922 187.097 79.8564 187.798 78.1449 189.148C76.4334 190.499 75.2572 192.412 74.8255 194.548C74.3938 196.683 74.7345 198.902 75.787 200.81C76.8396 202.718 78.5358 204.191 80.5739 204.968C82.6121 205.745 84.8601 205.775 86.9182 205.052C88.9762 204.33 90.711 202.902 91.8139 201.022C92.9167 199.143 93.3163 196.934 92.9414 194.788L92.8759 194.823Z" fill="#7040C2"/>
<path d="M100.136 205.598C99.5813 205.938 98.9562 206.145 98.3086 206.204C97.771 206.283 97.229 206.344 96.6871 206.379C97.2631 205.863 97.8007 205.306 98.2955 204.712C96.9858 204.371 95.5959 204.53 94.3974 205.158C93.199 205.786 92.2781 206.838 91.815 208.107C91.3518 209.377 91.3796 210.774 91.8929 212.024C92.4063 213.275 93.3682 214.289 94.5907 214.869C95.8132 215.449 97.2084 215.553 98.5034 215.16C99.7985 214.768 100.9 213.907 101.594 212.746C102.287 211.585 102.521 210.208 102.252 208.884C101.982 207.559 101.228 206.383 100.136 205.585V205.598Z" fill="#7040C2"/>
<path d="M80.6163 215.91C81.816 215.91 82.7885 214.939 82.7885 213.741C82.7885 212.543 81.816 211.572 80.6163 211.572C79.4166 211.572 78.4441 212.543 78.4441 213.741C78.4441 214.939 79.4166 215.91 80.6163 215.91Z" fill="#3F3D56"/>
<path d="M78.4441 214.828C79.6437 214.828 80.6163 213.857 80.6163 212.659C80.6163 211.461 79.6437 210.49 78.4441 210.49C77.2444 210.49 76.2719 211.461 76.2719 212.659C76.2719 213.857 77.2444 214.828 78.4441 214.828Z" fill="#3F3D56"/>
<path d="M76.2718 213.741C77.4715 213.741 78.444 212.77 78.444 211.572C78.444 210.374 77.4715 209.403 76.2718 209.403C75.0721 209.403 74.0996 210.374 74.0996 211.572C74.0996 212.77 75.0721 213.741 76.2718 213.741Z" fill="#3F3D56"/>
<path d="M67.6136 205.598C68.1675 205.938 68.7928 206.146 69.4405 206.204C69.9781 206.283 70.5201 206.344 71.062 206.379C70.4849 205.864 69.9473 205.307 69.4537 204.712C70.7633 204.371 72.1532 204.53 73.3517 205.158C74.5502 205.786 75.471 206.838 75.9342 208.107C76.3973 209.377 76.3695 210.774 75.8562 212.024C75.3429 213.275 74.3809 214.289 73.1584 214.869C71.9359 215.449 70.5408 215.553 69.2457 215.16C67.9507 214.768 66.8488 213.907 66.1556 212.746C65.4624 211.585 65.2277 210.208 65.4973 208.884C65.7669 207.559 66.5216 206.383 67.6136 205.585V205.598Z" fill="#7040C2"/>
<path d="M82.3121 226.755H87.6049C90.5028 226.755 93.282 227.905 95.3312 229.951C97.3803 231.997 98.5315 234.772 98.5315 237.666V252.011C98.5315 252.502 98.3362 252.972 97.9887 253.319C97.6412 253.666 97.1698 253.861 96.6783 253.861H73.2386C72.7472 253.861 72.2758 253.666 71.9283 253.319C71.5807 252.972 71.3855 252.502 71.3855 252.011V237.666C71.3855 234.772 72.5367 231.997 74.5858 229.951C76.6349 227.905 79.4142 226.755 82.3121 226.755Z" fill="#3F3D56"/>
<g opacity="0.1">
<path opacity="0.1" d="M93.042 195.416C92.822 195.651 92.5885 195.872 92.3427 196.079C92.5918 196.079 92.8365 196.04 93.0857 196.014C93.0944 195.813 93.0638 195.612 93.042 195.416Z" fill="black"/>
<path opacity="0.1" d="M89.0822 192.824C89.6285 192.789 90.1661 192.732 90.708 192.654C91.1943 192.592 91.6695 192.463 92.1197 192.269C91.8997 191.833 91.6454 191.414 91.3593 191.017C91.0874 191.182 90.7929 191.307 90.4851 191.388C90.0565 191.903 89.5874 192.383 89.0822 192.824Z" fill="black"/>
<path opacity="0.1" d="M75.7299 197.48C75.7267 195.826 76.1703 194.201 77.0142 192.777C77.8581 191.353 79.071 190.183 80.5251 189.389C81.9792 188.596 83.6206 188.209 85.2766 188.269C86.9325 188.328 88.5417 188.833 89.9345 189.73L90.0743 189.581C89.1653 188.774 88.1053 188.154 86.9552 187.757C85.8052 187.36 84.5879 187.195 83.3735 187.27C82.1592 187.345 80.9717 187.659 79.8795 188.195C78.7874 188.73 77.8121 189.476 77.01 190.39C76.2079 191.303 75.5947 192.366 75.2059 193.518C74.817 194.669 74.6601 195.885 74.7442 197.097C74.8284 198.309 75.1519 199.493 75.6961 200.58C76.2403 201.666 76.9945 202.634 77.9152 203.429C76.5017 201.768 75.7269 199.66 75.7299 197.48Z" fill="black"/>
</g>
<g opacity="0.1">
<path opacity="0.1" d="M96.6871 207.461C97.2291 207.426 97.771 207.37 98.3086 207.291C98.9565 207.23 99.5816 207.021 100.136 206.68C100.749 207.131 101.261 207.707 101.637 208.368C102.014 209.03 102.247 209.763 102.321 210.521C102.342 210.331 102.352 210.14 102.351 209.949C102.356 209.101 102.16 208.265 101.78 207.506C101.401 206.748 100.848 206.09 100.166 205.585C99.612 205.924 98.9868 206.132 98.3392 206.191L97.9022 206.248C97.5292 206.683 97.123 207.089 96.6871 207.461Z" fill="black"/>
<path opacity="0.1" d="M96.9056 205.611C97.0869 205.613 97.2679 205.626 97.4476 205.65C97.7317 205.349 98.0114 205.026 98.2955 204.712C97.492 204.498 96.6498 204.471 95.8343 204.634C95.0188 204.796 94.2517 205.144 93.5925 205.651C92.9333 206.157 92.3996 206.808 92.0328 207.554C91.666 208.299 91.476 209.118 91.4773 209.949C91.4773 210.132 91.4773 210.311 91.5035 210.49C91.6379 209.153 92.2651 207.913 93.2633 207.011C94.2615 206.11 95.5596 205.611 96.9056 205.611Z" fill="black"/>
</g>
<g opacity="0.1">
<path opacity="0.1" d="M71.0621 207.461C70.5201 207.426 69.9782 207.37 69.4406 207.291C68.7926 207.231 68.1673 207.022 67.6137 206.68C67 207.131 66.4883 207.707 66.1118 208.368C65.7353 209.03 65.5025 209.763 65.4284 210.521C65.4072 210.331 65.3969 210.14 65.3978 209.949C65.3936 209.101 65.5893 208.265 65.9689 207.506C66.3486 206.748 66.9015 206.09 67.5831 205.585C68.137 205.925 68.7623 206.133 69.41 206.191L69.8471 206.248C70.2177 206.685 70.6241 207.091 71.0621 207.461Z" fill="black"/>
<path opacity="0.1" d="M70.8435 205.611C70.6607 205.613 70.4783 205.626 70.2971 205.65C70.0174 205.349 69.7377 205.026 69.4536 204.712C70.2571 204.498 71.0992 204.471 71.9148 204.634C72.7303 204.796 73.4974 205.144 74.1566 205.651C74.8158 206.157 75.3495 206.808 75.7163 207.554C76.0831 208.299 76.2731 209.118 76.2718 209.949C76.2718 210.132 76.2718 210.311 76.2456 210.49C76.1112 209.153 75.484 207.913 74.4858 207.011C73.4876 206.11 72.1895 205.611 70.8435 205.611Z" fill="black"/>
</g>
</g>
<defs>
<clipPath id="clip0">
<rect width="500" height="278" fill="white"/>
</clipPath>
</defs>
</svg>
