<svg width="30" height="30" viewBox="0 0 30 30" fill="none" xmlns="http://www.w3.org/2000/svg">
<path d="M21.3028 10.4578L22.5 9.31309V9.06278H18.3534L15.3984 16.4175L12.0375 9.06278H7.68937V9.31403L9.08813 10.9968C9.22406 11.1206 9.29625 11.3034 9.2775 11.4862V18.1003C9.32062 18.3384 9.24281 18.5831 9.07594 18.7565L7.5 20.6653V20.9128H11.9653V20.6615L10.3903 18.7556C10.2197 18.5822 10.1391 18.3412 10.1738 18.0993V12.3787L14.0934 20.9156H14.5491L17.9194 12.3787V19.1793C17.9194 19.3593 17.9194 19.3959 17.8013 19.5131L16.5881 20.6859V20.9372H22.4709V20.6859L21.3019 19.5412C21.1997 19.4643 21.1463 19.334 21.1678 19.2075V10.7915C21.1481 10.665 21.2006 10.5347 21.3028 10.4578V10.4578Z" fill="#DDDDDD"/>
</svg>
