<svg width="30" height="30" viewBox="0 0 30 30" fill="none" xmlns="http://www.w3.org/2000/svg">
<path d="M7.78406 17.82L14.64 22.3912C14.8734 22.5347 15.1238 22.5366 15.36 22.3912L22.2159 17.82C22.3913 17.7028 22.5 17.4937 22.5 17.2847V12.7144C22.5 12.5053 22.3913 12.2953 22.2159 12.1791L15.36 7.60875C15.1266 7.46531 14.8763 7.46344 14.64 7.60875L7.78406 12.1791C7.60875 12.2953 7.5 12.5053 7.5 12.7144V17.2847C7.5 17.4937 7.60875 17.7028 7.78406 17.82ZM14.3559 20.6503L9.30844 17.2856L11.5603 15.7791L14.3559 17.6456V20.6503ZM15.6441 20.6503V17.6456L18.4397 15.7791L20.6916 17.2856L15.6441 20.6503ZM21.2109 16.0791L19.5956 15L21.2109 13.92V16.0791ZM15.6441 9.34968L20.6916 12.7144L18.4397 14.2209L15.6441 12.3544V9.34968ZM15 13.4756L17.2772 14.9991L15 16.5234L12.7228 15L15 13.4756ZM14.3559 9.34968V12.3544L11.5603 14.2209L9.30844 12.7144L14.3559 9.34968ZM8.78906 13.9209L10.4053 15L8.79 16.08V13.9209H8.78906Z" fill="#DDDDDD"/>
</svg>
