<svg width="50" height="50" viewBox="0 0 50 50" fill="none" xmlns="http://www.w3.org/2000/svg">
<path d="M30.0001 37.5335V33.946C30.047 33.35 29.9665 32.7508 29.7639 32.1883C29.5612 31.6258 29.2412 31.1128 28.8251 30.6835C32.7501 30.246 36.8751 28.7585 36.8751 21.9335C36.8747 20.1883 36.2035 18.51 35.0001 17.246C35.5699 15.7191 35.5296 14.0314 34.8876 12.5335C34.8876 12.5335 33.4126 12.096 30.0001 14.3835C27.1351 13.607 24.1151 13.607 21.2501 14.3835C17.8376 12.096 16.3626 12.5335 16.3626 12.5335C15.7206 14.0314 15.6803 15.7191 16.2501 17.246C15.0377 18.5194 14.3657 20.2128 14.3751 21.971C14.3751 28.746 18.5001 30.2335 22.4251 30.721C22.0138 31.146 21.6967 31.6528 21.4942 32.2084C21.2918 32.764 21.2086 33.3561 21.2501 33.946V37.5335" stroke="#FEFEFE" stroke-width="2" stroke-linecap="round" stroke-linejoin="round"/>
<path d="M21.25 35.0332C17.5 36.2497 14.375 35.0332 12.5 31.2832" stroke="#FEFEFE" stroke-width="2" stroke-linecap="round" stroke-linejoin="round"/>
</svg>
